<?xml version="1.0" encoding="utf-8"?>
<!-- Generator: Adobe Illustrator 24.0.0, SVG Export Plug-In . SVG Version: 6.00 Build 0)  -->
<svg version="1.1" id="Layer_1" xmlns="http://www.w3.org/2000/svg" xmlns:xlink="http://www.w3.org/1999/xlink" x="0px" y="0px"
	 viewBox="0 0 166 60.6" style="enable-background:new 0 0 166 60.6;" xml:space="preserve">
<style type="text/css">
	.st0{fill:#20419A;}
	.st1{fill:#F26722;}
	.st2{fill:#F47920;}
	.st3{enable-background:new    ;}
	.st4{fill:#808285;}
</style>
<g>
	<path class="st0" d="M15.6,7.5c1.8,0,3.3,0.4,4.2,1c1,0.7,1.8,1.7,2.3,2.9l0.5,1l5.5-3.5L27.7,8c-1.1-2.3-2.6-3.9-4.6-4.9
		c-1.9-0.9-4.2-1.5-6.9-1.5C11.4,1.6,7.6,3.1,4.9,6s-4.3,7.3-4.8,13c-0.5,5.6,0.3,9.9,2.5,12.8s5.8,4.4,10.8,4.4
		c2.3,0,4.4-0.3,6.2-0.9c1.8-0.5,3.6-1.3,5.5-2.3l0.6-0.3L27,17.6H13.1l-0.5,6h7.6l-0.5,5.5c-0.9,0.4-1.8,0.7-2.6,0.9
		c-1,0.2-2,0.3-3.1,0.3c-2.8,0-4.7-0.8-5.9-2.5C6.8,26,6.3,23.1,6.7,19c0.4-4,1.3-7,2.8-8.9C10.8,8.4,12.8,7.5,15.6,7.5"/>
	<path class="st0" d="M47,11.3c-1.6-1.4-4.1-2.1-7.8-2.1c-2.3,0-4.4,0.4-6,1.1c-1.8,0.8-3.1,2-4.1,3.5l-0.6,0.9l4.7,3.1l0.6-0.9
		c0.3-0.5,0.9-1,1.6-1.4c0.7-0.4,1.8-0.6,3.1-0.6c1.6,0,2.7,0.3,3.5,0.8c0.7,0.4,0.9,1.4,0.8,2.8v0.2L38,19.1
		c-2.5,0.3-4.4,0.8-5.8,1.5c-1.4,0.7-2.6,1.7-3.4,3c-0.9,1.2-1.4,2.8-1.5,4.6c-0.2,2.4,0.3,4.4,1.6,6c1.3,1.6,3.2,2.4,5.8,2.4
		c1.7,0,3.3-0.4,4.7-1.2c0.7-0.4,1.4-0.8,2.1-1.3l-0.2,1.8h6l1.5-17.1C49.2,15.1,48.6,12.7,47,11.3 M36.4,30.6
		c-1.1,0-1.9-0.2-2.4-0.6c-0.4-0.4-0.6-1.1-0.5-2.2s0.5-1.9,1.4-2.5c0.6-0.4,2-1,5-1.3l2.6-0.3l-0.3,4L41,28.6c-0.5,0.4-1,0.7-1.5,1
		s-1.1,0.5-1.6,0.7C37.3,30.5,36.8,30.6,36.4,30.6"/>
	<path class="st0" d="M66.9,10.7c-1.6-1-3.4-1.6-5.3-1.6c-3.3,0-6.1,1.3-8.2,3.9c-2,2.5-3.2,5.8-3.6,9.8c-0.3,4.1,0.2,7.4,1.7,9.7
		c1.6,2.4,3.9,3.6,7.1,3.6c1.6,0,3.1-0.3,4.5-1c0.6-0.3,1.2-0.6,1.7-0.9l-0.1,1.2h6L73.9,0h-6.1L66.9,10.7z M61.6,14.8
		c1.6,0,3.2,0.7,4.8,2l-1,11.4c-0.7,0.6-1.6,1.1-2.5,1.6c-1,0.5-2,0.8-3,0.8c-1.1,0-4.5,0-3.8-7.8c0.3-2.9,0.9-5,2-6.2
		C59,15.4,60.2,14.8,61.6,14.8"/>
	<polygon class="st1" points="97.4,35.5 118.5,35.5 119,29.6 104.2,29.6 104.9,21.1 117.6,21.1 118.1,15.1 105.5,15.1 106.1,8.3 
		120.9,8.3 121.4,2.3 100.3,2.3 	"/>
	<path class="st1" d="M132.8,9.2c-3.7,0-6.6,1.2-8.8,3.5c-2.1,2.2-3.5,5.7-3.8,10.1c-0.4,4.4,0.3,7.7,2.1,10
		c1.8,2.3,4.6,3.5,8.2,3.5c3.7,0,6.7-1.2,8.8-3.5s3.4-5.6,3.8-10c0.4-4.4-0.3-7.8-2-10C139.2,10.4,136.5,9.2,132.8,9.2 M134.9,28.9
		c-0.9,1.2-2.2,1.8-4,1.8c-1.9,0-3.1-0.6-3.8-1.8c-0.8-1.3-1-3.4-0.8-6.2c0.3-2.9,0.9-5.1,1.9-6.3c0.9-1.2,2.3-1.7,4.1-1.7
		c1.7,0,2.9,0.5,3.7,1.7c0.8,1.2,1.1,3.3,0.8,6.3C136.6,25.6,135.9,27.7,134.9,28.9"/>
	<path class="st1" d="M164.4,11.5c-1.1-1.5-3-2.3-5.6-2.3c-1.6,0-3.3,0.5-5,1.4c-0.8,0.5-1.6,1-2.3,1.5l0.2-2.2h-6.1l-2.2,25.7h6
		l1.5-17.2c1.1-0.9,2.3-1.7,3.5-2.3c1.2-0.7,2.2-1,3-1c0.9,0,1.4,0.2,1.6,0.3c0.3,0.2,0.4,0.5,0.6,1c0.1,0.5,0.1,1.5-0.1,4.2
		l-1.3,15h6l1.5-16.8C166,15.4,165.6,13,164.4,11.5"/>
	<path class="st0" d="M90.8,7.4c-1.6-1-3.4-1.6-5.4-1.6c-3.3,0-6,1.2-8.1,3.7c-2,2.3-3.3,5.6-3.6,9.7c-0.4,4.1,0.2,7.3,1.6,9.6
		c1.5,2.3,3.9,3.5,7.2,3.5c1.6,0,3.1-0.3,4.5-1c0.6-0.3,1.2-0.5,1.7-0.9v0.5c-0.2,1.8-0.6,3-1.5,3.7c-0.8,0.7-2.2,1.1-4.1,1.1
		c-2.5,0-4.6-0.7-6.3-1.9l-1-0.7L73,38.2l0.7,0.5c2.3,1.6,5.3,2.4,8.9,2.4c3.9,0,6.8-0.9,8.7-2.6c1.9-1.7,3.1-4.4,3.4-7.8l2.1-24.1
		h-6L90.8,7.4z M85.5,11.5c1.6,0,3.2,0.7,4.8,2l-0.9,10.7c-2,1.6-3.8,2.4-5.6,2.4c-1.5,0-2.5-0.5-3.1-1.6c-0.7-1.2-1-3.2-0.7-6
		c0.2-2.5,0.8-4.4,1.8-5.8C82.7,12.1,83.9,11.5,85.5,11.5"/>
	<polygon class="st1" points="75.9,33.1 79.3,38.7 73,38.2 	"/>
</g>
<g>
	<path class="st0" d="M15.6,7.5c1.8,0,3.2,0.3,4.2,1c1,0.7,1.8,1.7,2.3,2.8l0.5,1.1l5.5-3.5L27.7,8c-1.1-2.3-2.6-3.9-4.6-4.9
		c-1.9-1-4.2-1.4-6.9-1.4c-4.8,0-8.6,1.5-11.3,4.4C2.2,8.9,0.6,13.3,0.1,19c-0.5,5.6,0.3,9.9,2.5,12.8s5.8,4.4,10.8,4.4
		c2.3,0,4.4-0.3,6.2-0.9c1.8-0.6,3.6-1.3,5.4-2.3l0.6-0.3L27,17.6H13.1l-0.5,5.9h7.5L19.6,29c-0.9,0.4-1.8,0.7-2.6,0.9
		c-1,0.2-2,0.4-3.1,0.4c-2.8,0-4.7-0.8-5.9-2.5C6.8,26,6.3,23.1,6.7,19c0.4-4,1.3-7,2.8-8.9C10.8,8.4,12.8,7.5,15.6,7.5z"/>
	<path class="st0" d="M47,11.3c-1.6-1.4-4.1-2.1-7.8-2.1c-2.3,0-4.4,0.4-6,1.2c-1.7,0.8-3.1,2-4.1,3.5l-0.6,0.9l4.7,3.1l0.6-1
		c0.3-0.5,0.9-1,1.6-1.4c0.7-0.4,1.8-0.6,3.1-0.6c1.6,0,2.7,0.3,3.5,0.8c0.6,0.4,0.9,1.4,0.8,2.8v0.1L38,18.9
		c-2.5,0.3-4.3,0.8-5.7,1.4c-1.4,0.7-2.6,1.7-3.5,2.9c-0.8,1.2-1.3,2.8-1.5,4.6c-0.2,2.4,0.3,4.4,1.6,6c1.3,1.6,3.2,2.4,5.8,2.4
		c1.7,0,3.3-0.4,4.7-1.2c0.7-0.4,1.4-0.8,2.1-1.3l-0.2,1.8h6l1.5-17.1C49.2,15.1,48.5,12.7,47,11.3z M36.4,30.6
		c-1.1,0-1.9-0.2-2.4-0.6c-0.4-0.4-0.6-1.1-0.5-2.2s0.5-1.9,1.3-2.5c0.6-0.4,2-1,5-1.3l2.6-0.2l-0.4,4l-1.2,0.9
		c-0.5,0.4-1,0.7-1.6,1c-0.5,0.3-1.1,0.5-1.6,0.7C37.3,30.5,36.8,30.6,36.4,30.6z"/>
	<path class="st0" d="M66.9,10.7c-1.6-1-3.4-1.6-5.3-1.6c-3.3,0-6.1,1.3-8.2,3.9c-2,2.5-3.2,5.8-3.6,9.8c-0.4,4.1,0.2,7.4,1.7,9.7
		c1.5,2.4,3.9,3.6,7.1,3.6c1.6,0,3.1-0.3,4.5-1c0.6-0.3,1.2-0.6,1.7-0.9l-0.1,1.2h6L73.9,0h-6L66.9,10.7z M61.6,14.8
		c1.6,0,3.2,0.7,4.8,2l-1,11.4c-0.7,0.6-1.6,1.1-2.5,1.6c-1,0.5-2,0.8-3.1,0.8s-4.5,0-3.8-7.8c0.2-2.9,0.9-5,2-6.2
		C59,15.4,60.2,14.8,61.6,14.8z"/>
	<polygon class="st2" points="97.3,35.5 118.4,35.5 119,29.6 104.2,29.6 104.9,21.1 117.6,21.1 118.1,15.1 105.4,15.1 106,8.3 
		120.8,8.3 121.4,2.3 100.2,2.3 	"/>
	<path class="st2" d="M132.7,9.2c-3.7,0-6.6,1.2-8.8,3.5c-2.2,2.3-3.4,5.7-3.8,10.1s0.3,7.7,2.1,10c1.8,2.3,4.6,3.5,8.2,3.5
		c3.7,0,6.6-1.2,8.8-3.5c2.1-2.3,3.4-5.6,3.8-10c0.4-4.4-0.3-7.7-2-10C139.2,10.4,136.4,9.2,132.7,9.2z M134.9,29
		c-0.9,1.2-2.2,1.7-4,1.7c-1.9,0-3.1-0.6-3.8-1.7c-0.8-1.3-1-3.4-0.8-6.2c0.3-2.9,0.9-5.1,1.9-6.3c0.9-1.2,2.3-1.7,4.1-1.7
		s3,0.6,3.7,1.7c0.8,1.3,1.1,3.4,0.8,6.3C136.5,25.6,135.9,27.7,134.9,29z"/>
	<path class="st2" d="M164.4,11.5c-1.1-1.6-3-2.3-5.6-2.3c-1.6,0-3.3,0.5-5,1.4c-0.8,0.4-1.6,0.9-2.3,1.4l0.2-2.2h-6l-2.2,25.7h6
		l1.5-17.2c1.1-0.9,2.3-1.7,3.5-2.3c1.2-0.7,2.2-1,3-1c0.9,0,1.4,0.2,1.6,0.3c0.3,0.2,0.5,0.5,0.6,1c0.1,0.4,0.2,1.5-0.1,4.2
		l-1.3,15h6l1.5-16.8C165.9,15.4,165.5,13,164.4,11.5z"/>
	<g>
		<path class="st0" d="M90.8,7.5c-1.6-1-3.4-1.6-5.3-1.6c-3.3,0-6,1.2-8.1,3.6c-2,2.3-3.3,5.6-3.6,9.6c-0.4,4.1,0.2,7.3,1.6,9.6
			c1.5,2.3,3.9,3.5,7.2,3.5c1.6,0,3.1-0.3,4.5-1c0.6-0.3,1.2-0.6,1.7-0.9v0.5c-0.2,1.8-0.6,3-1.4,3.7c-0.8,0.7-2.2,1.1-4.1,1.1
			c-2.5,0-4.6-0.6-6.3-1.9L76,33l-3,5.2l0.7,0.5c2.3,1.6,5.3,2.4,8.9,2.4c3.9,0,6.8-0.9,8.7-2.6c1.9-1.7,3-4.4,3.3-7.8l2.1-24.1h-6
			L90.8,7.5z M85.4,11.5c1.6,0,3.2,0.7,4.8,2l-0.9,10.7c-1.9,1.6-3.8,2.4-5.5,2.4c-1.5,0-2.5-0.5-3.2-1.6c-0.7-1.2-0.9-3.2-0.7-6
			c0.2-2.5,0.8-4.4,1.8-5.8C82.6,12.1,83.9,11.5,85.4,11.5z"/>
		<polygon class="st2" points="75.8,33.1 79.3,38.7 73,38.2 		"/>
	</g>
</g>
<g class="st3">
	<path class="st4" d="M5.4,43.9L2.9,56.2H0.6L3,43.9H5.4z"/>
	<path class="st4" d="M15.3,47.5c0.6,0.5,0.9,1.3,0.9,2.2c0,0.3,0,0.6-0.1,1L15,56.2h-2.3l1-5.2c0-0.2,0.1-0.4,0.1-0.6
		c0-0.5-0.2-0.9-0.5-1.2c-0.3-0.3-0.8-0.5-1.4-0.5c-0.7,0-1.3,0.2-1.8,0.7c-0.5,0.5-0.8,1.1-1,1.8l-1,5H5.9l1.8-9.4H10l-0.3,1.3
		c0.7-1,1.8-1.5,3.1-1.5C13.9,46.7,14.7,47,15.3,47.5z"/>
	<path class="st4" d="M19.5,55.8c-0.6-0.4-1-0.8-1.4-1.5c-0.3-0.6-0.5-1.4-0.5-2.2c0-1,0.2-1.9,0.7-2.7c0.4-0.8,1.1-1.5,1.8-1.9
		c0.8-0.5,1.6-0.7,2.6-0.7c0.8,0,1.4,0.2,2,0.5c0.5,0.3,0.9,0.8,1.2,1.4l1.1-5.5h2.3l-2.6,13h-2.3l0.3-1.3c-0.4,0.4-0.9,0.8-1.5,1
		c-0.6,0.2-1.1,0.4-1.8,0.4C20.7,56.3,20.1,56.1,19.5,55.8z M23.8,54c0.5-0.3,0.8-0.7,1.1-1.2c0.3-0.5,0.4-1,0.4-1.6
		c0-0.7-0.2-1.3-0.6-1.8c-0.4-0.5-1-0.7-1.7-0.7c-0.6,0-1.1,0.1-1.5,0.4c-0.5,0.3-0.8,0.7-1.1,1.2c-0.3,0.5-0.4,1-0.4,1.6
		c0,0.7,0.2,1.3,0.6,1.8c0.4,0.4,1,0.7,1.7,0.7C22.9,54.4,23.4,54.3,23.8,54z"/>
	<path class="st4" d="M30.9,55.5C30.3,55,30,54.2,30,53.3c0-0.3,0-0.6,0.1-1l1.1-5.5h2.3l-1,5.2c0,0.2-0.1,0.4-0.1,0.6
		c0,0.5,0.2,0.9,0.5,1.2c0.3,0.3,0.8,0.5,1.4,0.5c0.7,0,1.3-0.2,1.8-0.7s0.8-1.1,1-1.8l1-5h2.3l-1.8,9.4h-2.3l0.3-1.3
		c-0.7,1-1.8,1.5-3.1,1.5C32.3,56.3,31.5,56.1,30.9,55.5z"/>
	<path class="st4" d="M42.5,55.8c-0.8-0.3-1.4-0.8-1.9-1.3l1-1.5c0.4,0.4,0.9,0.8,1.5,1.1c0.6,0.3,1.2,0.4,1.7,0.4
		c0.4,0,0.8-0.1,1-0.3s0.4-0.4,0.4-0.7c0-0.3-0.1-0.5-0.4-0.7c-0.3-0.2-0.7-0.4-1.2-0.6c-0.5-0.2-1-0.4-1.3-0.6
		c-0.3-0.2-0.6-0.5-0.9-0.8c-0.2-0.3-0.4-0.8-0.4-1.3c0-0.6,0.1-1.1,0.4-1.5s0.7-0.8,1.2-1c0.5-0.2,1.1-0.4,1.8-0.4
		c0.7,0,1.4,0.1,2.1,0.4c0.7,0.3,1.3,0.6,1.8,1l-1.1,1.5c-0.5-0.3-0.9-0.6-1.5-0.8c-0.5-0.2-1-0.3-1.4-0.3c-0.4,0-0.7,0.1-0.9,0.3
		c-0.2,0.2-0.4,0.4-0.4,0.6c0,0.3,0.1,0.5,0.4,0.6c0.2,0.2,0.6,0.4,1.2,0.6c0.6,0.2,1,0.4,1.4,0.6c0.4,0.2,0.7,0.5,0.9,0.8
		c0.3,0.3,0.4,0.8,0.4,1.3c0,0.6-0.2,1.1-0.5,1.5s-0.7,0.8-1.3,1c-0.5,0.3-1.2,0.4-1.9,0.4C44.1,56.3,43.3,56.1,42.5,55.8z"/>
	<path class="st4" d="M53.2,53.2c0,0.2-0.1,0.3-0.1,0.5c0,0.2,0.1,0.4,0.2,0.5c0.1,0.1,0.3,0.1,0.5,0.1c0.4,0,0.9-0.1,1.5-0.4
		l0.3,1.8c-0.8,0.4-1.6,0.6-2.4,0.6c-0.7,0-1.3-0.2-1.7-0.6s-0.7-0.9-0.7-1.6c0-0.2,0-0.5,0.1-0.7l0.9-4.5h-1.3l0.3-1.7h1.3l0.5-2.6
		h2.3l-0.5,2.6h2.7l-0.3,1.7h-2.7L53.2,53.2z"/>
	<path class="st4" d="M62.6,47.2c0.6-0.3,1.2-0.5,1.9-0.5l-0.3,2.2l-0.3,0c-0.9,0-1.6,0.2-2.2,0.7c-0.6,0.5-1.1,1.1-1.3,1.9
		l-0.9,4.6h-2.3l1.9-9.4h2.3l-0.3,1.7C61.5,47.9,62,47.5,62.6,47.2z"/>
	<path class="st4" d="M68.6,46.8l-1.9,9.4h-2.3l1.9-9.4H68.6z M69,43.1c0.2,0.2,0.3,0.5,0.3,0.8c0,0.4-0.2,0.8-0.5,1.1
		c-0.3,0.3-0.7,0.5-1.1,0.5c-0.3,0-0.6-0.1-0.8-0.3s-0.3-0.5-0.3-0.8c0-0.4,0.2-0.8,0.5-1.1c0.3-0.3,0.7-0.5,1.1-0.5
		C68.5,42.8,68.8,42.9,69,43.1z"/>
	<path class="st4" d="M71.4,55.8c-0.6-0.4-1-0.8-1.4-1.5c-0.3-0.6-0.5-1.4-0.5-2.2c0-1,0.2-1.9,0.7-2.7c0.4-0.8,1.1-1.5,1.8-1.9
		c0.8-0.5,1.6-0.7,2.6-0.7c0.8,0,1.4,0.2,2,0.5c0.5,0.3,0.9,0.8,1.2,1.4l0.4-1.9h2.3l-1.9,9.4h-2.3l0.3-1.3c-0.4,0.4-0.9,0.8-1.5,1
		c-0.6,0.2-1.1,0.4-1.8,0.4C72.7,56.3,72,56.1,71.4,55.8z M75.8,54c0.5-0.3,0.8-0.7,1.1-1.2c0.3-0.5,0.4-1,0.4-1.6
		c0-0.7-0.2-1.3-0.6-1.8c-0.4-0.5-1-0.7-1.7-0.7c-0.6,0-1.1,0.1-1.5,0.4c-0.5,0.3-0.8,0.7-1.1,1.2c-0.3,0.5-0.4,1-0.4,1.6
		c0,0.7,0.2,1.3,0.6,1.8c0.4,0.4,1,0.7,1.7,0.7C74.8,54.4,75.3,54.3,75.8,54z"/>
	<path class="st4" d="M86.4,43.2l-2.6,13h-2.3l2.6-13H86.4z"/>
	<path class="st4" d="M99.2,44.1c0.7,0.2,1.4,0.6,2,1l-1.1,2c-0.6-0.4-1.2-0.7-1.8-0.9c-0.6-0.2-1.2-0.3-1.7-0.3
		c-0.6,0-1.1,0.1-1.4,0.3c-0.4,0.2-0.5,0.5-0.5,1c0,0.3,0.1,0.6,0.3,0.8c0.2,0.2,0.5,0.4,0.8,0.5c0.3,0.1,0.7,0.3,1.3,0.5
		c0.7,0.2,1.4,0.5,1.8,0.7c0.5,0.2,0.9,0.5,1.2,1s0.5,1,0.5,1.6c0,0.9-0.2,1.6-0.7,2.2c-0.4,0.6-1.1,1.1-1.8,1.4
		c-0.8,0.3-1.6,0.5-2.6,0.5c-0.9,0-1.9-0.2-2.7-0.5S91,55,90.4,54.4l1.2-2c0.6,0.6,1.2,1,1.9,1.4c0.7,0.3,1.4,0.5,2.1,0.5
		c0.7,0,1.3-0.1,1.6-0.4s0.6-0.7,0.6-1.1c0-0.3-0.1-0.6-0.3-0.8c-0.2-0.2-0.5-0.4-0.8-0.5c-0.3-0.1-0.8-0.3-1.3-0.4
		c-0.7-0.2-1.4-0.4-1.8-0.7c-0.5-0.2-0.9-0.5-1.2-0.9c-0.3-0.4-0.5-0.9-0.5-1.6c0-0.8,0.2-1.5,0.6-2.1c0.4-0.6,1-1.1,1.8-1.4
		s1.6-0.5,2.6-0.5C97.7,43.7,98.5,43.8,99.2,44.1z"/>
	<path class="st4" d="M109.8,47.3c0.7,0.4,1.2,0.9,1.6,1.5c0.4,0.7,0.6,1.4,0.6,2.2c0,1-0.2,1.9-0.7,2.7s-1.1,1.4-1.9,1.9
		s-1.8,0.7-2.8,0.7c-0.9,0-1.7-0.2-2.4-0.5s-1.2-0.9-1.6-1.5S102,52.8,102,52c0-1,0.2-1.9,0.7-2.7c0.5-0.8,1.1-1.4,1.9-1.9
		c0.8-0.4,1.8-0.7,2.8-0.7C108.4,46.7,109.2,46.9,109.8,47.3z M105.8,49.1c-0.5,0.3-0.8,0.6-1.1,1.1s-0.4,1-0.4,1.6
		c0,0.8,0.2,1.4,0.7,1.8c0.4,0.5,1,0.7,1.7,0.7c0.6,0,1.1-0.1,1.5-0.4c0.4-0.3,0.8-0.6,1.1-1.1s0.4-1,0.4-1.6c0-0.7-0.2-1.4-0.6-1.8
		c-0.4-0.5-1-0.7-1.7-0.7C106.7,48.7,106.2,48.8,105.8,49.1z"/>
	<path class="st4" d="M118,43.2l-2.6,13h-2.3l2.6-13H118z"/>
	<path class="st4" d="M119.6,55.5c-0.6-0.5-0.9-1.3-0.9-2.2c0-0.3,0-0.6,0.1-1l1.1-5.5h2.3l-1,5.2c0,0.2-0.1,0.4-0.1,0.6
		c0,0.5,0.2,0.9,0.5,1.2c0.3,0.3,0.8,0.5,1.4,0.5c0.7,0,1.3-0.2,1.8-0.7c0.5-0.5,0.8-1.1,1-1.8l1-5h2.3l-1.8,9.4h-2.3l0.3-1.3
		c-0.7,1-1.8,1.5-3.1,1.5C121.1,56.3,120.2,56.1,119.6,55.5z"/>
	<path class="st4" d="M133.3,53.2c0,0.2-0.1,0.3-0.1,0.5c0,0.2,0.1,0.4,0.2,0.5c0.1,0.1,0.3,0.1,0.5,0.1c0.4,0,0.9-0.1,1.5-0.4
		l0.3,1.8c-0.8,0.4-1.6,0.6-2.4,0.6c-0.7,0-1.3-0.2-1.7-0.6s-0.7-0.9-0.7-1.6c0-0.2,0-0.5,0.1-0.7l0.9-4.5h-1.3l0.3-1.7h1.3l0.5-2.6
		h2.3l-0.5,2.6h2.7l-0.3,1.7h-2.7L133.3,53.2z"/>
	<path class="st4" d="M141.5,46.8l-1.9,9.4h-2.3l1.9-9.4H141.5z M141.9,43.1c0.2,0.2,0.3,0.5,0.3,0.8c0,0.4-0.2,0.8-0.5,1.1
		c-0.3,0.3-0.7,0.5-1.1,0.5c-0.3,0-0.6-0.1-0.8-0.3s-0.3-0.5-0.3-0.8c0-0.4,0.2-0.8,0.5-1.1c0.3-0.3,0.7-0.5,1.1-0.5
		C141.5,42.8,141.7,42.9,141.9,43.1z"/>
	<path class="st4" d="M150.4,47.3c0.7,0.4,1.2,0.9,1.6,1.5c0.4,0.7,0.6,1.4,0.6,2.2c0,1-0.2,1.9-0.7,2.7c-0.5,0.8-1.1,1.4-1.9,1.9
		s-1.8,0.7-2.8,0.7c-0.9,0-1.7-0.2-2.4-0.5c-0.7-0.4-1.2-0.9-1.6-1.5c-0.4-0.6-0.6-1.4-0.6-2.3c0-1,0.2-1.9,0.7-2.7
		c0.5-0.8,1.1-1.4,1.9-1.9c0.8-0.4,1.8-0.7,2.8-0.7C148.9,46.7,149.7,46.9,150.4,47.3z M146.3,49.1c-0.5,0.3-0.8,0.6-1.1,1.1
		c-0.3,0.5-0.4,1-0.4,1.6c0,0.8,0.2,1.4,0.6,1.8c0.4,0.5,1,0.7,1.7,0.7c0.6,0,1.1-0.1,1.5-0.4c0.4-0.3,0.8-0.6,1.1-1.1
		c0.3-0.5,0.4-1,0.4-1.6c0-0.7-0.2-1.4-0.6-1.8s-1-0.7-1.7-0.7C147.3,48.7,146.8,48.8,146.3,49.1z"/>
	<path class="st4" d="M163.1,47.5c0.6,0.5,0.9,1.3,0.9,2.2c0,0.3,0,0.6-0.1,1l-1.1,5.5h-2.3l1-5.2c0-0.2,0.1-0.4,0.1-0.6
		c0-0.5-0.2-0.9-0.5-1.2c-0.3-0.3-0.8-0.5-1.4-0.5c-0.7,0-1.3,0.2-1.8,0.7c-0.5,0.5-0.8,1.1-1,1.8l-1,5h-2.3l1.8-9.4h2.3l-0.3,1.3
		c0.7-1,1.8-1.5,3.1-1.5C161.6,46.7,162.5,47,163.1,47.5z"/>
</g>
</svg>
